<svg id="visual" viewBox="0 0 900 600" width="900" height="600" xmlns="http://www.w3.org/2000/svg" xmlns:xlink="http://www.w3.org/1999/xlink" version="1.1"><rect x="0" y="0" width="900" height="600" fill="#002233"></rect><path d="M0 497L21.5 499C43 501 86 505 128.8 500C171.7 495 214.3 481 257.2 470.7C300 460.3 343 453.7 385.8 460.5C428.7 467.3 471.3 487.7 514.2 488.5C557 489.3 600 470.7 642.8 460.5C685.7 450.3 728.3 448.7 771.2 449C814 449.3 857 451.7 878.5 452.8L900 454L900 601L878.5 601C857 601 814 601 771.2 601C728.3 601 685.7 601 642.8 601C600 601 557 601 514.2 601C471.3 601 428.7 601 385.8 601C343 601 300 601 257.2 601C214.3 601 171.7 601 128.8 601C86 601 43 601 21.5 601L0 601Z" fill="#ffffff" stroke-linecap="round" stroke-linejoin="miter"></path></svg>