<svg style="width:100%; height:auto;" viewBox="0 0 307 279" fill="none" xmlns="http://www.w3.org/2000/svg" preserveAspectRatio="xMidYMid meet"><path d="M198 17.4388H266V77.4388H198V17.4388Z" fill="#BFD7ED"/>
<rect x="163" y="77.4388" width="102" height="190" fill="#BFD7ED"/>
<ellipse cx="128.5" cy="180.939" rx="81.5" ry="52.5" fill="#BFD7ED"/>
<path d="M210 227.939C210 256.934 173.511 267.439 128.5 267.439C83.4888 267.439 47 256.934 47 227.939C47 198.944 83.4888 175.439 128.5 175.439C173.511 175.439 210 198.944 210 227.939Z" fill="#BFD7ED"/>
<path d="M163 239.5C163 268.495 126.511 279 81.5 279C36.4888 279 0 268.495 0 239.5C0 210.505 36.4888 187 81.5 187C126.511 187 163 210.505 163 239.5Z" fill="#BFD7ED"/>
<ellipse cx="151" cy="137.939" rx="34" ry="13.5" fill="#BFD7ED"/>
<path d="M251 109.5C251 136.286 226.034 158 175.5 158C124.966 158 84 136.286 84 109.5C84 82.7142 124.966 61 175.5 61C226.034 61 251 82.7142 251 109.5Z" fill="#BFD7ED"/>
<path d="M278.94 48.6103C279.228 73.8898 257.073 91.7991 216.146 92.2643C175.218 92.7294 141.808 72.6134 141.52 47.334C141.233 22.0545 174.178 1.18439 215.105 0.719244C256.032 0.2541 278.653 23.3308 278.94 48.6103Z" fill="#BFD7ED"/>
</svg>
