<svg style="width:100%; height:auto;" viewBox="0 0 307 279" fill="none" xmlns="http://www.w3.org/2000/svg" preserveAspectRatio="xMidYMid meet">
<path d="M239 29H307V89H239V29Z" fill="#BFD7ED"/>
<path d="M239 2H307V62H239V2Z" fill="#BFD7ED"/>
<rect x="204" y="89" width="102" height="190" fill="#BFD7ED"/>
<ellipse cx="169.5" cy="192.5" rx="81.5" ry="52.5" fill="#BFD7ED"/>
<path d="M251 239.5C251 268.495 214.511 279 169.5 279C124.489 279 88 268.495 88 239.5C88 210.505 124.489 187 169.5 187C214.511 187 251 210.505 251 239.5Z" fill="#BFD7ED"/>
<ellipse cx="192" cy="149.5" rx="34" ry="13.5" fill="#BFD7ED"/>
<path d="M301 114C301 141.062 276.034 163 225.5 163C174.966 163 134 141.062 134 114C134 86.938 174.966 65 225.5 65C276.034 65 301 86.938 301 114Z" fill="#BFD7ED"/>
<path d="M28.1469 257.724H252.196V279H28.1469V257.724Z" fill="#BFD7ED"/>
<path d="M20.2657 257.724H244.315V279H20.2657V257.724Z" fill="#BFD7ED"/>
<path d="M174 254.5C174 283.495 102.011 278 57 278C11.9888 278 11 283.495 11 254.5C11 225.505 47.4888 202 92.5 202C137.511 202 174 225.505 174 254.5Z" fill="#BFD7ED"/>
<path d="M298.5 56.3126C300.294 78.317 284.127 95.1049 252.237 97.7045C220.348 100.304 193.042 84.5734 191.248 62.569C189.454 40.5646 213.852 20.6191 245.742 18.0195C277.632 15.42 296.706 34.3082 298.5 56.3126Z" fill="#BFD7ED"/>
<path d="M280.656 22.4134C281.132 34.0693 271.905 42.5998 254.407 43.3138C236.908 44.0277 222.337 35.1575 221.861 23.5015C221.385 11.8456 227.001 2.71393 244.5 2C261.999 1.28607 280.181 10.7575 280.656 22.4134Z" fill="#BFD7ED"/>
</svg>
